<?xml version="1.0" encoding="UTF-8" standalone="no"?>
<svg width="17px" height="15px" viewBox="0 0 17 15" version="1.1" xmlns="http://www.w3.org/2000/svg" xmlns:xlink="http://www.w3.org/1999/xlink">
    <!-- Generator: Sketch 39.1 (31720) - http://www.bohemiancoding.com/sketch -->
    <title>Fill 4</title>
    <desc>Created with Sketch.</desc>
    <defs></defs>
    <g id="Wires" stroke="none" stroke-width="1" fill="none" fill-rule="evenodd">
        <g id="dt07-Lightbox-Pic-Detail" transform="translate(-956.000000, -553.000000)" fill="#FFFFFF">
            <g id="Lightbox" transform="translate(313.000000, 132.000000)">
                <g id="Group-3" transform="translate(637.000000, 414.000000)">
                    <path d="M21.8228408,15.4211748 C21.8228408,15.4211748 22.4743649,15.1352748 22.4384925,14.3512828 C22.4104433,13.7353898 21.9418114,13.4210033 21.521264,13.3139201 C21.521264,13.3139201 21.1259036,13.0585751 19.8984164,13.1589832 C19.8984164,13.1589832 18.6614841,13.3251079 17.899385,12.8926384 C17.899385,12.8926384 18.2361664,12.1672178 18.777211,11.5038472 C19.318351,10.8402886 19.7149516,10.0614674 19.565642,9.1673837 C19.4163324,8.27330001 19.2825739,7.61086955 18.6133043,7.46965885 C17.9439393,7.32816611 17.5990484,7.6590993 17.511657,8.14515741 C17.4242656,8.6310275 17.3029098,9.09884668 17.0911096,9.37966981 C16.8793093,9.66058696 15.0933184,11.1947255 14.8085329,11.3895248 C14.5235567,11.5842301 13.8191779,11.913565 13.0491601,12.952714 C12.458123,13.7502442 12.2121676,13.8086276 12.038148,13.7711156 L12.038148,13.6448533 C12.038148,13.2368277 11.7025115,12.9061766 11.2886424,12.9061766 L7.56944975,12.9061766 C7.15538988,12.9061766 6.81984873,13.2368277 6.81984873,13.6448533 L6.81984873,21.0882175 C6.81984873,21.4963371 7.15538988,21.8271763 7.56944975,21.8271763 L11.2886424,21.8271763 C11.7025115,21.8271763 12.038148,21.4963371 12.038148,21.0882175 L12.038148,20.9882795 C12.8956527,21.0885936 14.5924395,21.3041702 15.8937705,21.5770021 C17.8048381,21.9780705 20.9504529,22.161494 21.1725569,20.7331225 C21.1725569,20.7331225 21.3500111,20.0100522 20.8672593,19.716349 C20.8672593,19.716349 21.7962226,19.7663651 21.9651858,18.969399 C22.0956051,18.3540701 21.8589041,18.085845 21.6124717,17.74363 C21.6124717,17.74363 22.4270438,17.6076842 22.5332301,16.6837037 C22.6117489,16.0001198 22.2494942,15.6833829 21.8228408,15.4211748" id="Fill-4"></path>
                </g>
            </g>
        </g>
    </g>
</svg>