<?xml version="1.0" encoding="UTF-8" standalone="no"?>
<svg width="18px" height="18px" viewBox="0 0 18 18" version="1.1" xmlns="http://www.w3.org/2000/svg" xmlns:xlink="http://www.w3.org/1999/xlink">
    <!-- Generator: Sketch 39.1 (31720) - http://www.bohemiancoding.com/sketch -->
    <title>Group 3</title>
    <desc>Created with Sketch.</desc>
    <defs></defs>
    <g id="Wires" stroke="none" stroke-width="1" fill="none" fill-rule="evenodd">
        <g id="dt02Homepage" transform="translate(-1229.000000, -682.000000)">
            <g id="Gallery" transform="translate(322.000000, 134.000000)">
                <g id="Img-4-Copy-5" transform="translate(822.000000, 404.000000)">
                    <g id="Like" transform="translate(0.000000, 144.000000)">
                        <g id="Group-3" transform="translate(85.000000, 0.000000)">
                            <path d="M17.5576172,9.17442599 C17.5576172,13.952161 13.6272349,17.8251511 8.77884186,17.8251511 C3.93039154,17.8251511 9.28338704e-06,13.952161 9.28338704e-06,9.17442599 C9.28338704e-06,4.39663454 3.93039154,0.52347528 8.77884186,0.52347528 C13.6272349,0.52347528 17.5576172,4.39663454 17.5576172,9.17442599" id="Fill-1" fill="#999999"></path>
                            <path d="M13.0937045,9.25270485 C13.0937045,9.25270485 13.484619,9.08116489 13.4630955,8.61076969 C13.446266,8.2412339 13.1650869,8.05260198 12.9127584,7.98835206 C12.9127584,7.98835206 12.6755422,7.83514503 11.9390499,7.89538992 C11.9390499,7.89538992 11.1968905,7.99506474 10.739631,7.73558303 C10.739631,7.73558303 10.9416998,7.30033068 11.2663266,6.90230832 C11.5910106,6.50417313 11.828971,6.03688043 11.7393852,5.50043022 C11.6497995,4.96398 11.5695443,4.56652173 11.1679826,4.48179531 C10.7663636,4.39689967 10.5594291,4.59545958 10.5069942,4.88709445 C10.4545593,5.1786165 10.3817459,5.45930801 10.2546657,5.62780189 C10.1275856,5.79635218 9.05599102,6.71683531 8.88511977,6.83371489 C8.71413403,6.95053807 8.29150674,7.14813902 7.82949606,7.77162843 C7.47487382,8.25014653 7.32730059,8.28517656 7.22288881,8.26266934 L7.22288881,8.18691197 C7.22288881,7.94209662 7.02150688,7.74370594 6.77318544,7.74370594 L4.54166985,7.74370594 C4.29323393,7.74370594 4.09190924,7.94209662 4.09190924,8.18691197 L4.09190924,12.6529305 C4.09190924,12.8978023 4.29323393,13.0963058 4.54166985,13.0963058 L6.77318544,13.0963058 C7.02150688,13.0963058 7.22288881,12.8978023 7.22288881,12.6529305 L7.22288881,12.5929677 C7.73739159,12.6531561 8.75546369,12.7825021 9.53626231,12.9462012 C10.6829029,13.1868423 12.5702717,13.2968964 12.7035341,12.4398735 C12.7035341,12.4398735 12.8100067,12.0060313 12.5203556,11.8298094 C12.5203556,11.8298094 13.0777336,11.859819 13.1791115,11.3816394 C13.2573631,11.0124421 13.1153424,10.851507 12.967483,10.646178 C12.967483,10.646178 13.4562263,10.5646105 13.5199381,10.0102222 C13.5670493,9.60007188 13.3496965,9.41002974 13.0937045,9.25270485" id="Fill-4" fill="#FFFFFF"></path>
                        </g>
                    </g>
                </g>
            </g>
        </g>
    </g>
</svg>