<?xml version="1.0" encoding="utf-8"?>
<!-- Generator: Adobe Illustrator 17.1.0, SVG Export Plug-In . SVG Version: 6.00 Build 0)  -->
<!DOCTYPE svg PUBLIC "-//W3C//DTD SVG 1.1//EN" "http://www.w3.org/Graphics/SVG/1.1/DTD/svg11.dtd">
<svg version="1.1" id="Layer_1" xmlns="http://www.w3.org/2000/svg" xmlns:xlink="http://www.w3.org/1999/xlink" x="0px" y="0px"
	 width="705px" height="162px" viewBox="0 0 705 162" enable-background="new 0 0 705 162" xml:space="preserve">
<g>
	<g>
		<path fill="#9B9A9A" d="M431.3,113.9h5.9v3.3c1.2-2,3.6-3.8,6.8-3.8c5.2,0,9.2,3.8,9.2,10.8v0.3c0,7-4,10.9-9.2,10.9
			c-3.3,0-5.7-1.6-6.8-3.7v10.4h-5.9V113.9z M447.2,124.6v-0.3c0-4.3-2.1-6.4-5.1-6.4c-3.1,0-5.2,2.1-5.2,6.4v0.3
			c0,4.3,2,6.3,5.2,6.3C445.5,130.9,447.2,128.7,447.2,124.6z"/>
		<path fill="#9B9A9A" d="M457.1,104.3h5.9v13c1.1-2.1,3.4-3.8,6.9-3.8c4.2,0,7.1,2.5,7.1,8.2V135h-5.9v-12.6c0-2.9-1.1-4.2-3.7-4.2
			c-2.5,0-4.4,1.5-4.4,4.7V135h-5.9V104.3z"/>
		<path fill="#9B9A9A" d="M480.7,124.7v-0.3c0-6.6,4.8-11,11.2-11s11.1,4.2,11.1,10.8v0.3c0,6.7-4.8,10.9-11.2,10.9
			C485.5,135.5,480.7,131.3,480.7,124.7z M497.1,124.6v-0.3c0-4-1.9-6.5-5.2-6.5c-3.2,0-5.2,2.4-5.2,6.4v0.3c0,4,1.9,6.5,5.2,6.5
			C495.2,131,497.1,128.6,497.1,124.6z"/>
		<path fill="#9B9A9A" d="M507.8,128.8V118h-2.7v-4.2h2.7v-4.6h5.8v4.6h4.5v4.2h-4.5v10.2c0,1.7,0.8,2.5,2.3,2.5
			c0.9,0,1.5-0.1,2.2-0.4v4.5c-0.8,0.3-2,0.6-3.6,0.6C510.2,135.4,507.8,133.2,507.8,128.8z"/>
		<path fill="#9B9A9A" d="M520.9,124.7v-0.3c0-6.6,4.8-11,11.2-11c6.4,0,11.1,4.2,11.1,10.8v0.3c0,6.7-4.8,10.9-11.2,10.9
			C525.7,135.5,520.9,131.3,520.9,124.7z M537.3,124.6v-0.3c0-4-1.9-6.5-5.2-6.5c-3.2,0-5.2,2.4-5.2,6.4v0.3c0,4,1.9,6.5,5.2,6.5
			C535.4,131,537.3,128.6,537.3,124.6z"/>
		<path fill="#9B9A9A" d="M554.8,124.7v-0.3c0-6.8,4.9-11,10.9-11c4.9,0,9.4,2.1,10,8.2h-5.5c-0.4-2.5-1.9-3.6-4.3-3.6
			c-3,0-5.1,2.3-5.1,6.3v0.3c0,4.3,1.9,6.4,5.2,6.4c2.3,0,4.3-1.4,4.5-4.1h5.3c-0.3,5-4,8.5-10.1,8.5
			C559.5,135.5,554.8,131.6,554.8,124.7z"/>
		<path fill="#9B9A9A" d="M578.2,124.7v-0.3c0-6.6,4.8-11,11.2-11c6.4,0,11.1,4.2,11.1,10.8v0.3c0,6.7-4.8,10.9-11.2,10.9
			C583.1,135.5,578.2,131.3,578.2,124.7z M594.6,124.6v-0.3c0-4-1.9-6.5-5.2-6.5c-3.2,0-5.2,2.4-5.2,6.4v0.3c0,4,1.9,6.5,5.2,6.5
			C592.7,131,594.6,128.6,594.6,124.6z"/>
		<path fill="#9B9A9A" d="M604.5,113.9h5.9v3.4c1.1-2.1,3.4-3.8,6.9-3.8c4.2,0,7.1,2.5,7.1,8.2V135h-5.9v-12.6
			c0-2.9-1.1-4.2-3.7-4.2c-2.5,0-4.4,1.5-4.4,4.7V135h-5.9V113.9z"/>
		<path fill="#9B9A9A" d="M630.3,128.8V118h-2.7v-4.2h2.7v-4.6h5.8v4.6h4.5v4.2h-4.5v10.2c0,1.7,0.8,2.5,2.3,2.5
			c0.9,0,1.5-0.1,2.2-0.4v4.5c-0.8,0.3-2,0.6-3.6,0.6C632.6,135.4,630.3,133.2,630.3,128.8z"/>
		<path fill="#9B9A9A" d="M643.3,124.7v-0.3c0-6.7,4.7-11,10.9-11c5.5,0,10.3,3.2,10.3,10.8v1.6h-15.3c0.2,3.5,2.1,5.5,5.3,5.5
			c2.7,0,4-1.2,4.4-3h5.5c-0.7,4.6-4.3,7.1-10.1,7.1C648,135.5,643.3,131.5,643.3,124.7z M658.8,122.2c-0.2-3.2-1.8-4.7-4.6-4.7
			c-2.6,0-4.4,1.7-4.9,4.7H658.8z"/>
		<path fill="#9B9A9A" d="M667.1,128.4h5.5c0.2,1.9,1.2,3,3.7,3c2.3,0,3.3-0.8,3.3-2.3c0-1.5-1.3-2.1-4.3-2.5
			c-5.6-0.8-7.8-2.5-7.8-6.6c0-4.4,4-6.6,8.4-6.6c4.7,0,8.2,1.7,8.7,6.6h-5.4c-0.3-1.7-1.3-2.5-3.3-2.5c-1.9,0-3,0.9-3,2.2
			c0,1.3,1,1.9,4.1,2.3c5.3,0.8,8.2,2.1,8.2,6.6c0,4.6-3.3,7-8.9,7C670.6,135.5,667.3,133,667.1,128.4z"/>
		<path fill="#9B9A9A" d="M689.8,128.8V118h-2.7v-4.2h2.7v-4.6h5.8v4.6h4.5v4.2h-4.5v10.2c0,1.7,0.8,2.5,2.3,2.5
			c0.9,0,1.5-0.1,2.2-0.4v4.5c-0.8,0.3-2,0.6-3.6,0.6C692.2,135.4,689.8,133.2,689.8,128.8z"/>
	</g>
	<g>
		<path fill="#00A1DE" d="M660,72.3c-0.6,0.9-0.7,1.9-0.7,2.9c0,2.4,1.1,4.5,3.6,4.5c2.4,0,3.6-1.9,3.6-4.3c0-1.7-0.4-3-1.2-3.8
			c-0.9-0.9-2-0.9-2.6-0.8C661.4,70.9,660.6,71.3,660,72.3 M671,75.2c0,3.8-2.2,8-8,8c-4.2,0-8.1-2.4-8.1-8c0-4.6,2.9-8.2,8.7-7.9
			C669.6,67.6,671,72.5,671,75.2"/>
		<path fill="#00A1DE" d="M678,69.3c0.5-0.6,1.7-2,4.3-2c2.5,0,3.4,0.9,4.2,1.8c0.9-0.7,2.1-1.8,4.5-1.8c2.5,0,3.7,1.2,4.2,2.2
			c0.4,0.8,0.4,1.8,0.4,3.5v9.8h-4.4v-7.9c0-0.9,0-2-0.2-2.6c-0.4-1.3-1.6-1.4-1.9-1.4c-0.4,0-1,0.1-1.4,0.5
			c-0.8,0.7-0.8,1.5-0.8,3.2v8.2h-4.4v-8.9c0-0.7,0-1.6-0.4-2.1c-0.3-0.5-1-0.8-1.7-0.8c-0.3,0-0.8,0.1-1.2,0.3c-1,0.7-1,1.9-1,2.9
			v8.5h-4.4v-15h4.4V69.3z"/>
		<path fill="#00A1DE" d="M444.9,60.1c-1.5,0-3,0.6-4.2,2.2c-1.2,1.5-1.7,3.9-1.7,6.5c0,3.5,0.9,5.6,2,6.8c1,1,2.3,1.6,3.6,1.6
			c4,0,5.7-4.3,5.7-8.6c0-3.6-1-7.5-4.3-8.3C445.7,60.1,445.3,60.1,444.9,60.1 M438.5,57.6c0.3-0.3,0.5-0.6,0.8-0.9
			c1.4-1.3,3.9-2.4,6.9-2.4c6.8,0,12,5.1,12,14.3c0,5.6-2.5,14.4-11.9,14.4c-3.1,0-4.6-1-6.8-2.3V92h-8.2V55h7.2V57.6z"/>
		<path fill="#00A1DE" d="M469.5,57.8c1.8-1.5,3.8-2.7,8-3.2v7.2l-2.7,0.4c-3.9,0.7-5.1,1.3-5.1,4.8v15.5h-8.1V54.9h7.9V57.8z"/>
		<rect x="481" y="54.9" fill="#00A1DE" width="8" height="27.6"/>
		<path fill="#00A1DE" d="M535.7,65.3c-0.2-1.2-0.4-2.7-1.5-3.9c-1-1-2.5-1.5-4-1.5c-2,0-3.3,1-4.1,1.8c-1.1,1.2-1.4,2.5-1.6,3.6
			L535.7,65.3L535.7,65.3z M543.8,75.5c-0.9,1.4-1.9,2.8-3.3,4.1c-2.4,2.2-6,3.9-10.4,3.9c-8.2,0-13.9-5.2-13.9-14.3
			c0-6.6,3.3-15.2,14.1-15.2c1.6,0,6.4,0.2,10,4c3.6,3.9,3.8,9.2,3.9,12.3h-19.7c-0.1,3.4,1.9,6.9,6.3,6.9c4.4,0,6-2.9,7-4.9
			L543.8,75.5z"/>
		<rect x="547.6" y="43" fill="#00A1DE" width="8.1" height="39.5"/>
		<rect x="561.2" y="54.9" fill="#00A1DE" width="8" height="27.6"/>
		<path fill="#00A1DE" d="M582.9,57.4c0.8-0.8,1.3-1.5,2.7-2.2c1.3-0.5,3.1-1,5-1c1.6,0,3.5,0.3,4.9,1.1c2.9,1.5,3.6,4,3.6,8.3v18.8
			h-8.1V67c0-2.5-0.1-3.4-0.4-4.1c-0.6-1.5-2.1-2.1-3.6-2.1c-4.3,0-4.3,3.4-4.3,6.9v14.9h-8.1V55h8.2V57.4z"/>
		<path fill="#00A1DE" d="M621.9,65.3c-0.2-1.2-0.4-2.7-1.5-3.9c-1-1-2.5-1.5-4-1.5c-2,0-3.3,1-4.1,1.8c-1.1,1.2-1.4,2.5-1.6,3.6
			L621.9,65.3L621.9,65.3z M630,75.5c-0.9,1.4-1.9,2.8-3.3,4.1c-2.4,2.2-6,3.9-10.4,3.9c-8.2,0-13.9-5.2-13.9-14.3
			c0-6.6,3.3-15.2,14.1-15.2c1.6,0,6.4,0.2,9.9,4c3.6,3.9,3.8,9.2,3.9,12.3h-19.7c-0.1,3.4,1.9,6.9,6.3,6.9c4.4,0,6-2.9,7-4.9
			L630,75.5z"/>
		<path fill="#00A1DE" d="M512,74.1c0-0.1-0.2,0-0.2,0c-0.2,0.3-0.4,0.6-0.6,0.9c-1.7,1.9-3.7,1.9-4.1,1.9c-4.3,0-6.1-4.6-6.1-8.2
			c0-3.3,1.5-8.3,5.9-8.3c1.3,0,2.3,0.4,3.1,0.9c1.1,0.8,1.7,1.6,2.1,2.4c0,0.1,0.2,0.1,0.2,0.1c0.7-2.3,1.8-4.4,3.5-6.1
			c-3.2-2.9-6.9-3.5-9.3-3.5c-9.2,0-13.8,6.7-13.8,14.8c0,11.2,8.4,14.4,13.7,14.4c3.1,0,5.8-1,7.9-2.5c0.5-0.3,0.9-0.7,1.3-1
			C513.8,78.4,512.7,76.5,512,74.1"/>
		<path fill="#00A1DE" d="M489.4,48c0,2.4-2,4.4-4.4,4.4c-2.4,0-4.4-2-4.4-4.4c0-2.4,2-4.4,4.4-4.4C487.5,43.6,489.4,45.6,489.4,48"
			/>
		<path fill="#00A1DE" d="M569.6,48c0,2.4-2,4.4-4.4,4.4c-2.4,0-4.4-2-4.4-4.4c0-2.4,2-4.4,4.4-4.4C567.7,43.6,569.6,45.6,569.6,48"
			/>
		<path fill="#00A1DE" d="M635.3,77.5c1.6,0,2.9,1.3,2.9,2.9c0,1.6-1.3,2.9-2.9,2.9s-2.9-1.3-2.9-2.9
			C632.4,78.8,633.7,77.5,635.3,77.5"/>
		<path fill="#00A1DE" d="M651.5,78.2c0,0-0.1,0-0.1,0c-0.1,0.2-0.2,0.3-0.3,0.5c-0.9,1-2,1-2.2,1c-2.3,0-3.3-2.5-3.3-4.4
			c0-1.8,0.8-4.5,3.2-4.5c0.7,0,1.2,0.2,1.6,0.5c0.6,0.4,0.9,0.9,1.1,1.3c0,0,0.1,0.1,0.1,0c0.4-1.2,1-2.4,1.9-3.3
			c-1.7-1.6-3.7-1.9-5-1.9c-5,0-7.5,3.6-7.5,8c0,6.1,4.5,7.8,7.4,7.8c1.7,0,3.1-0.5,4.3-1.3c0.3-0.2,0.5-0.4,0.7-0.5
			C652.5,80.5,651.9,79.5,651.5,78.2"/>
		<path fill="#00A1DE" d="M699.4,66.4h0.6c0.5,0,0.8-0.1,0.8-0.5c0-0.3-0.3-0.5-0.7-0.5h-0.6V66.4z M698.9,65h1.2
			c0.7,0,1.1,0.3,1.1,0.9c0,0.6-0.4,0.9-0.8,0.9l0.9,1.4h-0.5l-0.9-1.4h-0.5v1.4h-0.5V65z M699.9,68.9c1.3,0,2.3-1.1,2.3-2.3
			s-1-2.3-2.3-2.3c-1.3,0-2.3,1.1-2.3,2.3S698.7,68.9,699.9,68.9 M699.9,63.8c1.5,0,2.8,1.2,2.8,2.8s-1.2,2.8-2.8,2.8
			c-1.5,0-2.8-1.2-2.8-2.8S698.4,63.8,699.9,63.8"/>
	</g>
	<path fill="#00A1DE" d="M263.3,25.5v-9.1c0-2-1.6-3.5-3.5-3.5h-26.7c-2,0-3.5,1.6-3.5,3.5v9.1H263.3z"/>
	<path fill="#FCAF17" d="M2.3,47.7c0-1.4,1.1-2.6,2.6-2.6h33.5c18.4,0,31.2,13.9,31.2,30.7c0,17.2-12.8,31.3-31,31.3H24v32.7
		c0,1.4-1.3,2.6-2.6,2.6H4.9c-1.5,0-2.6-1.3-2.6-2.6V47.7z M38,86.8c6,0,10.2-4.7,10.2-11C48.2,70,44,65.5,38,65.5H24v21.3H38z"/>
	<path fill="#FCAF17" d="M75.6,47.7c0-1.4,1.3-2.6,2.6-2.6h16.7c1.4,0,2.6,1.3,2.6,2.6v92.1c0,1.4-1.3,2.6-2.6,2.6H78.2
		c-1.4,0-2.6-1.3-2.6-2.6V47.7z"/>
	<path fill="#FCAF17" d="M157.3,43.7c13.9,0,24.2,4.3,33.7,12.9c1.3,1.1,1.3,2.8,0.1,3.9l-10.9,11.3c-1,1-2.5,1-3.5,0
		c-5.7-5-12-7.1-18.8-7.1c-15.7,0-27.3,13.1-27.3,28.7c0,15.4,11.7,28.2,27.4,28.2c7.7,0,13.6-2.4,18.6-6.7c1-0.8,2.8-0.8,3.6,0.1
		l10.9,11.5c1,1,0.8,2.8-0.1,3.8c-9.5,9.2-21.4,13.5-33.8,13.5c-27.8,0-50.2-22.1-50.2-49.9C107.1,66.1,129.5,43.7,157.3,43.7z"/>
	<path fill="#00A1DE" d="M392.7,29.1H351l-2.4-9.2c-2.3-9-6.5-14.5-14.5-14.5h-46.5c-8,0-12.2,5.6-14.5,14.5l-2.4,9.2h-47.1
		c-6.7,0-12.1,5.4-12.1,12.1V148c0,6.7,5.4,12.1,12.1,12.1h169.1c6.7,0,12.1-5.4,12.1-12.1V41.2C404.8,34.5,399.4,29.1,392.7,29.1z
		 M321.3,136.3h-14.1c-1.1,0-2.2-1-2.3-1.9l-5.4-37h-0.2l-20.1,38.8c-0.4,0.7-1.4,1.3-2,1.3H275c-0.7,0-1.7-0.6-2-1.3l-20.2-38.8
		h-0.2l-5.3,37c-0.1,1-1.1,1.9-2.3,1.9h-14.1c-1.4,0-2.5-1.1-2.3-2.6l13.5-80.4c0.1-1.1,1.2-1.9,2.2-1.9h1.9c0.6,0,1.7,0.5,2,1.2
		l27.8,51.7h0.2l27.8-51.7c0.4-0.7,1.4-1.2,2-1.2h1.9c1,0,2,0.8,2.2,1.9l13.5,80.4C323.8,135.3,322.7,136.3,321.3,136.3z
		 M386.4,67.9c0,1.2-1,2.3-2.3,2.3H351V85h27.3c1.2,0,2.3,1.1,2.3,2.3v13c0,1.3-1.1,2.3-2.3,2.3H351v16.2h33.1
		c1.3,0,2.3,1.1,2.3,2.3v13c0,1.2-1,2.3-2.3,2.3h-49.5c-1.3,0-2.3-1.1-2.3-2.3V54.8c0-1.2,1-2.3,2.3-2.3h49.5c1.3,0,2.3,1.1,2.3,2.3
		V67.9z"/>
</g>
</svg>
